<svg width="220" height="22" viewBox="0 0 220 22" fill="none" xmlns="http://www.w3.org/2000/svg">
<g clip-path="url(#clip0_6337_27)">
<path d="M11.113 10.8757V18.2843H8.59522V11.1939C8.59522 9.1092 7.87084 8.14498 6.04041 8.14498C4.6968 8.14498 3.79132 8.78528 2.51781 10.047V18.2825H0V6.33895H2.05826L2.25883 8.24291H2.36008C3.5966 7.01503 5.00252 6.04517 6.90889 6.04517C9.79669 6.04517 11.113 7.76268 11.113 10.8719V10.8757ZM26.6035 11.6855C26.6035 12.1996 26.5393 12.6949 26.4886 13.0075H17.0931C17.3813 15.4614 19.1806 16.6723 21.6088 16.6723C22.9894 16.6723 24.1052 16.2693 25.2171 15.6214L26.0972 17.16C24.8276 17.9698 23.1841 18.5781 21.2894 18.5781C17.5429 18.5781 14.5831 16.2712 14.5831 12.2938C14.5831 8.31635 17.613 6.04893 20.9175 6.04893C24.5414 6.04893 26.6035 8.35025 26.6035 11.6855ZM17.1476 11.2241H24.3466C24.1578 9.03387 22.9115 7.93406 20.9857 7.93406C19.0598 7.93406 17.539 9.09036 17.1476 11.2241ZM40.7854 6.34083L39.5178 12.9058C39.3133 14.0489 39.2062 15.1111 39.0134 16.2636H38.9122C38.7564 15.1111 38.4565 14.0489 38.1878 12.9058L36.8909 7.30317H34.6574L33.3294 12.9058C33.0568 14.0188 32.8017 15.1111 32.6556 16.2636H32.5602C32.4083 15.1111 32.2506 14.0489 32.0422 12.9058L30.7551 6.34083H28.286L30.8038 18.2843H33.898L35.0839 13.0602C35.2864 12.0508 35.4655 10.9096 35.6427 9.52163H35.744C35.9329 11.0056 36.1198 12.1732 36.3126 13.0602L37.5394 18.2843H40.653L43.1027 6.34083H40.7854Z" fill="#F7F7F7"/>
<path d="M174.021 16.2957C174.021 17.6384 173.036 18.5781 171.743 18.5781C170.45 18.5781 169.465 17.6384 169.465 16.2957C169.465 14.9529 170.45 14.0132 171.743 14.0132C173.036 14.0132 174.021 14.9774 174.021 16.2957ZM219.488 16.1054C218.641 16.4049 217.759 16.6158 216.674 16.6158C214.441 16.6158 213.689 15.6215 213.689 13.5668V8.28624H219.515V6.34274H213.689V2.55554H211.601L211.27 6.34085L207.769 6.46703V8.28436H211.171V13.5593C211.171 16.5555 212.4 18.5781 216.092 18.5781C217.667 18.5781 218.888 18.2561 220 17.8832L219.488 16.1054ZM196.849 9.11298H196.789L196.563 6.34274H194.479V18.2862H196.997V11.5085C198.364 9.09791 200.07 8.22409 201.84 8.22409C202.79 8.22409 203.259 8.3465 204.101 8.60639L204.652 6.53859C203.902 6.18643 203.187 6.04895 202.229 6.04895C200.025 6.04895 198.124 7.16759 196.849 9.11298ZM189.009 11.0941V18.2862H186.93L186.729 16.7363H186.649C185.329 17.7363 183.611 18.5781 181.921 18.5781C179.559 18.5781 177.744 17.2354 177.744 15.1318C177.744 12.4538 180.256 11.1356 186.491 10.6836C186.402 9.20714 185.584 8.0207 183.388 8.0207C181.894 8.0207 180.422 8.68172 179.215 9.36533L178.253 7.7401C179.639 6.91147 181.693 6.04707 183.835 6.04707C187.239 6.04707 189.009 7.93784 189.009 11.0904V11.0941ZM186.491 12.2448C181.641 12.5819 180.204 13.5235 180.204 14.951C180.204 16.1488 181.316 16.6459 182.638 16.6459C183.96 16.6459 185.214 16.0471 186.491 15.0414V12.2448Z" fill="#878787"/>
<path d="M81.0704 6.38795L79.832 9.27119C79.2556 8.97552 78.648 8.84557 77.912 8.84557C76.2529 8.84557 74.4283 10.4218 72.9796 12.936L71.854 18.2844H68.3938L70.857 6.13371L73.6786 6.15819L73.3125 9.39736H73.4138C74.7496 7.24482 76.6833 5.86441 78.5955 5.86441C79.6937 5.86441 80.5817 6.06591 81.0724 6.38795H81.0704ZM65.6948 3.52166C66.6763 3.52166 67.313 3.75141 68.0179 4.22599L69.5543 2.12241C68.7384 1.50847 67.4084 0.87194 65.5352 0.87194C62.2813 0.87194 60.2873 2.48023 59.6291 5.65913L59.524 6.16196L56.1221 6.29944L55.6002 8.76836H58.9826L57.0081 18.2863H60.4684L62.4176 8.76836H66.8067L67.3364 6.16008H62.9531L63.0524 5.67232C63.3795 4.11488 64.3512 3.52354 65.6948 3.52354V3.52166ZM48.2181 22H55.3471V20.6554H50.1888V2.32392H55.3471V0.979284H48.2181V22ZM127.892 4.22411C129.308 4.22411 130.445 3.22599 130.445 1.90207C130.445 0.664783 129.518 0 128.231 0C126.821 0 125.704 1.08286 125.704 2.32203C125.704 3.56121 126.755 4.22411 127.892 4.22411ZM93.4278 11.2674C93.4278 15.6347 89.9169 18.58 86.1392 18.58C82.6847 18.58 80.5817 16.435 80.5817 13.1789C80.5817 8.81168 84.0926 5.86629 87.8781 5.86629C91.3247 5.86629 93.4278 8.0113 93.4278 11.2674ZM89.9246 11.3729C89.9246 9.60452 89.0328 8.60264 87.6171 8.60264C85.7984 8.60264 84.0868 10.4539 84.0868 13.0753C84.0868 14.8437 84.9786 15.8456 86.3943 15.8456C88.213 15.8456 89.9246 13.9944 89.9246 11.3729ZM128.923 15.8456C128.029 15.8456 127.417 15.4388 127.417 14.4388C127.417 14.2354 127.46 14.0207 127.519 13.8041L129.374 6.16196H121.788L121.223 8.77024H125.357L124.103 13.6441C123.965 14.1676 123.871 14.6365 123.871 15.1055C123.871 17.2731 125.449 18.5819 127.857 18.5819C129.398 18.5819 130.511 18.3164 131.602 17.8701L130.891 15.3597C130.099 15.6742 129.536 15.8475 128.924 15.8475L128.923 15.8456ZM145.922 10.6328C145.922 11.6403 145.648 12.7589 145.502 13.1657H137.008C137.047 15.2731 138.349 16.0151 139.928 16.0151C141.364 16.0151 142.53 15.4783 143.687 14.7401L144.839 16.9642C143.363 17.9699 141.371 18.5838 139.13 18.5838C135.909 18.5838 133.553 16.8814 133.553 13.2034C133.553 8.83804 136.984 5.87006 140.828 5.87006C144.072 5.87006 145.924 7.81921 145.924 10.6347L145.922 10.6328ZM137.376 10.9925H142.715C142.738 10.8475 142.754 10.7006 142.754 10.5593C142.754 9.17702 141.963 8.43503 140.727 8.43503C139.49 8.43503 138.053 9.27872 137.378 10.9925H137.376ZM158.98 0.981168V2.3258H164.139V20.6573H158.98V22.0019H166.109V0.979284H158.98V0.981168ZM115.566 2.45386H112.745L111.463 6.16196L107.991 6.30132L107.477 8.77024H110.768L109.81 13.3258C109.666 13.9755 109.608 14.4237 109.608 14.919C109.608 17.1412 110.879 18.5819 113.858 18.5819C115.796 18.5819 117.63 18.0358 118.746 17.3126L117.695 14.9736C116.937 15.4275 115.942 15.8475 114.912 15.8475C113.882 15.8475 113.111 15.3672 113.111 14.1337C113.111 13.8682 113.119 13.6403 113.22 13.1996L114.186 8.77213H119.558L120.088 6.16384H114.758L115.566 2.45574V2.45386ZM157.596 5.86817C155.686 5.86817 153.75 7.24859 152.414 9.40113H152.313L152.679 6.16196L149.858 6.13748L147.394 18.2881H150.855L151.98 12.9397C153.429 10.4256 155.255 8.84934 156.912 8.84934C157.649 8.84934 158.254 8.9774 158.832 9.27495L160.073 6.39171C159.582 6.07156 158.694 5.86817 157.596 5.86817ZM103.388 5.86817C101.608 5.86817 99.7525 7.03955 98.4985 8.2467H98.3972L98.5432 6.16196H95.7411L93.2778 18.2881H96.7381L98.2395 10.8945C99.4156 9.47458 100.726 8.72316 101.785 8.72316C102.611 8.72316 103.075 9.12994 103.075 9.94915C103.075 10.3107 102.993 10.7175 102.884 11.2053L101.417 18.2863H104.878L106.432 10.7966C106.558 10.1902 106.64 9.5612 106.64 8.98305C106.64 6.96987 105.491 5.86629 103.39 5.86629L103.388 5.86817Z" fill="#6A53FF"/>
</g>
<defs>
<clipPath id="clip0_6337_27">
<rect width="220" height="22" fill="white"/>
</clipPath>
</defs>
</svg>
