<svg width="24" height="24" viewBox="0 0 24 24" fill="none" xmlns="http://www.w3.org/2000/svg">
<path fill-rule="evenodd" clip-rule="evenodd" d="M10.6538 2.9231C6.38425 2.9231 2.92307 6.38429 2.92307 10.6539C2.92307 14.9235 6.38425 18.3846 10.6538 18.3846C12.4281 18.3846 14.0628 17.7869 15.3675 16.7818L19.3698 20.7841C19.7603 21.1746 20.3935 21.1746 20.784 20.7841C21.1745 20.3935 21.1745 19.7604 20.784 19.3699L16.7818 15.3676C17.7869 14.0629 18.3846 12.4282 18.3846 10.6539C18.3846 6.38429 14.9234 2.9231 10.6538 2.9231ZM4.92307 10.6539C4.92307 7.48885 7.48882 4.9231 10.6538 4.9231C13.8189 4.9231 16.3846 7.48885 16.3846 10.6539C16.3846 13.8189 13.8189 16.3846 10.6538 16.3846C7.48882 16.3846 4.92307 13.8189 4.92307 10.6539Z" fill="#878787"/>
</svg>
